<svg xmlns="http://www.w3.org/2000/svg" height="800" width="1200" viewBox="-23.221875 -10.601575 201.25625 63.60945"><path d="M55.5 10.1875c-8.3075 0-12.0937 5.4687-12.0937 10.5312 0 2.9425 1.0637 5.6325 2.9687 7.4063 2.0963 1.965 4.8938 2.9375 8.5313 2.9375 3.1575 0 5.73-.7875 7-1.25l.3125-.0937v-9.625h-3.5v7.4687c-.5.1875-1.595.4688-3.5938.4688-4.9112 0-8.0625-2.9225-8.0625-7.4375 0-4.485 3.265-7.375 8.3438-7.375 1.9087 0 3.3812.2962 4.8125.9375l.4687.1875.9375-2.9375-.3437-.1563c-1.0375-.4875-3.1775-1.0625-5.7813-1.0625zm80.4063.0312v2.9375l6.6875.0312c3.0638 0 5.3563.755 6.8125 2.2187 1.1787 1.1825 1.7663 2.825 1.75 4.8438 0 2.2475-.6975 4.1387-2.0313 5.4687-1.5525 1.5588-3.9975 2.3575-7.0312 2.3438-.92 0-1.9487-.0163-2.6875-.0937v-9.25h-3.5v12.0625l.4063.0312c1.5324.1537 3.1987.25 5.3124.25 4.3363 0 7.9125-1.135 10.0625-3.1875 2.0125-1.975 3.125-4.715 3.125-7.7188 0-2.8825-1.0062-5.2625-2.9687-7.0625-2.0225-1.9012-5.1612-2.875-9.3438-2.875h-6.5937zm-67.5625.1562v20.4688h3.5312V10.3749zm27.5312 0v20.4688h12.9688v-3.0313h-9.4375v-6.0937h8.4687v-3.0313h-8.4687v-5.25h8.9687v-3.0625zm24.625 0l-7.7187 20.4688h3.5625l2.25-6.25h7.1875l2.375 6.25h3.625l-7.8125-20.4688H120.5zm-41.9062.0312v20.4375h12.8437v-3.0937H82.125V10.406zm43.5625 4c.2012.6213 2.1487 5.79 2.7187 7.2813H119.5s2.465-6.66 2.6563-7.2813z" fill="#646569"/><path d="M31.7188 0C5.2613 2.5187 1.9126 20.7662 10.5625 26.5938c-1.495 6.5874-.125 6.4374-.125 6.4374.2726-1.9687.6525-3.9287 1.1563-5.8437C14.97 14.3488 23.325 3.1788 31.75.25V.2188c.0537-.004.125-.0337.125-.0937 0-.08-.0637-.125-.125-.125h-.0312zm-1.375 4.1875c-.0462 0-.1013.0462-.125.0937-2.1875 4.2862-2.8063 10.4213-4.4688 15.125-1.9112 5.3675-5.3037 9.0062-10.5312 8.6563v13.0624S1.25 34.7837 1.25 24.625V5.5938l11.4063-1.0625h.0312c.0613 0 .0937-.0288.0937-.0937 0-.0738-.0337-.1188-.0937-.125H0V24.625C0 36.05 15.2187 42.4063 15.2187 42.4063s15.25-6.4576 15.25-17.7813V4.3125c0-.0537-.0638-.125-.125-.125z" fill="#c6093b"/></svg>