<?xml version="1.0" encoding="UTF-8" standalone="no"?>
<!-- Created with Inkscape (http://www.inkscape.org/) -->

<svg
   xmlns:dc="http://purl.org/dc/elements/1.1/"
   xmlns:cc="http://creativecommons.org/ns#"
   xmlns:rdf="http://www.w3.org/1999/02/22-rdf-syntax-ns#"
   xmlns:svg="http://www.w3.org/2000/svg"
   xmlns="http://www.w3.org/2000/svg"
   xmlns:sodipodi="http://sodipodi.sourceforge.net/DTD/sodipodi-0.dtd"
   xmlns:inkscape="http://www.inkscape.org/namespaces/inkscape"
   width="223.99185"
   height="62.058529"
   viewBox="0 0 59.264511 16.419652"
   version="1.1"
   id="svg19426"
   inkscape:version="0.92.0 r15299"
   sodipodi:docname="indivior.svg">
  <defs
     id="defs19420" />
  <sodipodi:namedview
     id="base"
     pagecolor="#ffffff"
     bordercolor="#666666"
     borderopacity="1.0"
     inkscape:pageopacity="0.0"
     inkscape:pageshadow="2"
     inkscape:zoom="4.0225684"
     inkscape:cx="111.49593"
     inkscape:cy="30.529266"
     inkscape:document-units="mm"
     inkscape:current-layer="layer1"
     showgrid="false"
     fit-margin-top="0"
     fit-margin-left="0"
     fit-margin-right="0"
     fit-margin-bottom="0"
     units="px"
     inkscape:window-width="1280"
     inkscape:window-height="744"
     inkscape:window-x="-4"
     inkscape:window-y="-4"
     inkscape:window-maximized="1" />
  <metadata
     id="metadata19423">
    <rdf:RDF>
      <cc:Work
         rdf:about="">
        <dc:format>image/svg+xml</dc:format>
        <dc:type
           rdf:resource="http://purl.org/dc/dcmitype/StillImage" />
        <dc:title></dc:title>
      </cc:Work>
    </rdf:RDF>
  </metadata>
  <g
     inkscape:label="Layer 1"
     inkscape:groupmode="layer"
     id="layer1"
     transform="translate(-77.089321,-191.14003)">
    <g
       id="g19485"
       transform="translate(0.1322909,-0.13228936)">
      <path
         d="m 83.914441,207.55968 c -0.32597,0 -0.5902,-0.26423 -0.5902,-0.5902 v -3.05188 l -2.15723,2.15759 c -0.23107,0.23072 -0.60502,0.23072 -0.83538,0 -0.22966,-0.23036 -0.22966,-0.60395 0,-0.83467 l 4.17265,-4.17301 v 5.90197 c 0,0.32597 -0.26423,0.5902 -0.58984,0.5902"
         style="fill:#243e89;fill-opacity:1;fill-rule:nonzero;stroke:none;stroke-width:0.35277778"
         id="path19132"
         inkscape:connector-curvature="0" />
      <path
         d="m 85.757171,197.89643 v -5.90091 c 0,-0.32597 0.26352,-0.59091 0.58914,-0.59091 0.32667,0 0.5902,0.26494 0.5902,0.59091 v 3.05152 l 2.15829,-2.15794 c 0.23036,-0.23071 0.60396,-0.23071 0.83432,0 0.23142,0.23001 0.23142,0.60502 0,0.83467 z"
         style="fill:#42c1dd;fill-opacity:1;fill-rule:nonzero;stroke:none;stroke-width:0.35277778"
         id="path19136"
         inkscape:connector-curvature="0" />
      <path
         d="m 84.504391,197.89643 -4.17266,-4.17266 c -0.22965,-0.23071 -0.22965,-0.60466 0,-0.83467 0.23037,-0.23071 0.60467,-0.23071 0.83538,0 l 2.15689,2.15794 v -3.05152 c 0,-0.32597 0.26458,-0.59091 0.59055,-0.59091 0.32561,0 0.58984,0.26494 0.58984,0.59091 z"
         style="fill:#42c1dd;fill-opacity:1;fill-rule:nonzero;stroke:none;stroke-width:0.35277778"
         id="path19140"
         inkscape:connector-curvature="0" />
      <path
         d="m 91.269791,204.49027 c -0.15099,0 -0.30198,-0.0575 -0.41698,-0.17286 l -4.17301,-4.17301 h 5.90126 c 0.32597,0 0.59055,0.26423 0.59055,0.5902 0,0.32632 -0.26458,0.5909 -0.59055,0.5909 h -3.05152 l 2.15794,2.15724 c 0.23001,0.23036 0.23001,0.60431 0,0.83467 -0.11501,0.11536 -0.2667,0.17286 -0.41769,0.17286"
         style="fill:#42c1dd;fill-opacity:1;fill-rule:nonzero;stroke:none;stroke-width:0.35277778"
         id="path19144"
         inkscape:connector-curvature="0" />
      <path
         d="m 92.581061,198.82014 h -5.90127 l 4.17301,-4.17336 c 0.23037,-0.23036 0.60396,-0.23036 0.83467,0 0.23002,0.23001 0.23002,0.60431 0,0.83502 l -2.15794,2.15724 h 3.05153 c 0.32597,0 0.59055,0.26494 0.59055,0.5902 0,0.32702 -0.26458,0.5909 -0.59055,0.5909"
         style="fill:#42c1dd;fill-opacity:1;fill-rule:nonzero;stroke:none;stroke-width:0.35277778"
         id="path19148"
         inkscape:connector-curvature="0" />
      <path
         d="m 83.581841,198.82014 h -5.90162 c -0.32561,0 -0.5909,-0.26388 -0.5909,-0.5909 0,-0.32526 0.26529,-0.5902 0.5909,-0.5902 h 3.05118 l -2.15724,-2.15724 c -0.23072,-0.23071 -0.23072,-0.60466 0,-0.83502 0.23036,-0.23036 0.6036,-0.23036 0.83467,0 z"
         style="fill:#42c1dd;fill-opacity:1;fill-rule:nonzero;stroke:none;stroke-width:0.35277778"
         id="path19152"
         inkscape:connector-curvature="0" />
      <path
         d="m 86.346311,207.55968 c -0.32561,0 -0.58914,-0.26423 -0.58914,-0.5902 v -5.90197 l 4.17195,4.17301 c 0.23107,0.23072 0.23107,0.60431 0,0.83467 -0.23036,0.23072 -0.60395,0.23072 -0.83432,0 l -2.15829,-2.15759 v 3.05188 c 0,0.32597 -0.26353,0.5902 -0.5902,0.5902"
         style="fill:#42c1dd;fill-opacity:1;fill-rule:nonzero;stroke:none;stroke-width:0.35277778"
         id="path19156"
         inkscape:connector-curvature="0" />
      <path
         d="m 78.991001,204.49027 c -0.15099,0 -0.30127,-0.0575 -0.41663,-0.17286 -0.23107,-0.23036 -0.23107,-0.60431 0,-0.83467 l 2.15724,-2.15724 h -3.05153 c -0.32562,0 -0.59055,-0.26458 -0.59055,-0.5909 0,-0.32597 0.26493,-0.5902 0.59055,-0.5902 h 5.90162 l -4.17266,4.17301 c -0.115,0.11536 -0.26705,0.17286 -0.41804,0.17286"
         style="fill:#42c1dd;fill-opacity:1;fill-rule:nonzero;stroke:none;stroke-width:0.35277778"
         id="path19160"
         inkscape:connector-curvature="0" />
      <path
         inkscape:connector-curvature="0"
         id="path19162"
         style="fill:#243e89;fill-opacity:1;fill-rule:nonzero;stroke:none;stroke-width:0.35277778"
         d="m 96.623541,202.64348 h -1.2319 v -6.59765 h 1.2319 z" />
      <path
         d="m 98.521771,196.05292 c 0.0363,0.005 0.0695,0.0138 0.0984,0.0275 0.0286,0.0141 0.0568,0.0339 0.084,0.0593 0.0275,0.0258 0.0575,0.0603 0.0914,0.10266 l 3.462859,4.41184 c -0.0123,-0.10583 -0.0205,-0.21061 -0.025,-0.31221 -0.005,-0.1023 -0.007,-0.19685 -0.007,-0.2854 v -4.01037 h 1.08091 v 6.59729 h -0.63394 c -0.097,0 -0.1778,-0.0152 -0.2413,-0.0452 -0.0646,-0.0303 -0.12665,-0.0857 -0.18768,-0.1644 l -3.448749,-4.39349 c 0.009,0.097 0.0159,0.19332 0.0201,0.28963 0.004,0.0956 0.007,0.18309 0.007,0.26247 v 4.05094 h -1.08091 v -6.59729 h 0.64382 c 0.0543,0 0.0998,0.002 0.13652,0.007"
         style="fill:#243e89;fill-opacity:1;fill-rule:nonzero;stroke:none;stroke-width:0.35277778"
         id="path19174"
         inkscape:connector-curvature="0" />
      <path
         d="m 109.03186,199.345 c 0,-0.36195 -0.0483,-0.68651 -0.1457,-0.97402 -0.0977,-0.28751 -0.23601,-0.53058 -0.41557,-0.73025 -0.17956,-0.19932 -0.39758,-0.35172 -0.6544,-0.45826 -0.25718,-0.10654 -0.54716,-0.15981 -0.8696,-0.15981 h -1.28199 v 4.64468 h 1.28199 c 0.32244,0 0.61242,-0.0533 0.8696,-0.15981 0.25682,-0.10654 0.47484,-0.25929 0.6544,-0.45826 0.17956,-0.19932 0.31785,-0.44238 0.41557,-0.73025 0.0974,-0.28716 0.1457,-0.61207 0.1457,-0.97402 m 1.25518,0 c 0,0.48401 -0.0811,0.92781 -0.24165,1.33244 -0.16192,0.40464 -0.38841,0.75248 -0.68016,1.04458 -0.2921,0.29174 -0.64346,0.51929 -1.05445,0.6798 -0.41098,0.16122 -0.86501,0.24165 -1.36419,0.24165 h -2.51813 v -6.59765 h 2.51813 c 0.49918,0 0.95321,0.0819 1.36419,0.24448 0.41099,0.16298 0.76235,0.38946 1.05445,0.68051 0.29175,0.28998 0.51824,0.63747 0.68016,1.0421 0.16051,0.40499 0.24165,0.84843 0.24165,1.33209"
         style="fill:#243e89;fill-opacity:1;fill-rule:nonzero;stroke:none;stroke-width:0.35277778"
         id="path19178"
         inkscape:connector-curvature="0" />
      <path
         inkscape:connector-curvature="0"
         id="path19180"
         style="fill:#243e89;fill-opacity:1;fill-rule:nonzero;stroke:none;stroke-width:0.35277778"
         d="m 112.26712,202.64348 h -1.23261 v -6.59765 h 1.23261 z" />
      <path
         d="m 112.73642,196.04593 h 0.98989 c 0.1069,0 0.19368,0.0261 0.26035,0.0776 0.0667,0.0522 0.11713,0.11889 0.15064,0.20108 l 1.55116,4.02449 c 0.0519,0.13018 0.1009,0.27411 0.14817,0.43074 0.0469,0.15664 0.0921,0.32139 0.13441,0.49495 0.0698,-0.3496 0.15699,-0.65828 0.2607,-0.92569 l 1.54587,-4.02449 c 0.0272,-0.0698 0.0766,-0.1337 0.14605,-0.19191 0.0702,-0.0575 0.15699,-0.0868 0.26071,-0.0868 h 0.98989 l -2.66488,6.59765 h -1.10843 z"
         style="fill:#243e89;fill-opacity:1;fill-rule:nonzero;stroke:none;stroke-width:0.35277778"
         id="path19192"
         inkscape:connector-curvature="0" />
      <path
         inkscape:connector-curvature="0"
         id="path19194"
         style="fill:#243e89;fill-opacity:1;fill-rule:nonzero;stroke:none;stroke-width:0.35277778"
         d="m 120.88054,202.64348 h -1.2319 v -6.59765 h 1.2319 z" />
      <path
         d="m 127.06689,199.345 c 0,-0.36195 -0.0476,-0.68651 -0.14358,-0.97402 -0.096,-0.28751 -0.23354,-0.53199 -0.4131,-0.73307 -0.17957,-0.20003 -0.39758,-0.35348 -0.65441,-0.46002 -0.25682,-0.10654 -0.54715,-0.15981 -0.86959,-0.15981 -0.32174,0 -0.61207,0.0533 -0.87101,0.15981 -0.25859,0.10654 -0.47837,0.25999 -0.65899,0.46002 -0.18133,0.20108 -0.32068,0.44556 -0.41839,0.73307 -0.097,0.28751 -0.1457,0.61207 -0.1457,0.97402 0,0.36195 0.0487,0.68686 0.1457,0.97402 0.0977,0.28787 0.23706,0.53093 0.41839,0.73025 0.18062,0.19897 0.4004,0.35172 0.65899,0.45826 0.25894,0.10654 0.54927,0.15981 0.87101,0.15981 0.32244,0 0.61277,-0.0533 0.86959,-0.15981 0.25683,-0.10654 0.47484,-0.25929 0.65441,-0.45826 0.17956,-0.19932 0.31714,-0.44238 0.4131,-0.73025 0.096,-0.28716 0.14358,-0.61207 0.14358,-0.97402 m 1.25906,0 c 0,0.48401 -0.0804,0.93133 -0.2413,1.34373 -0.16157,0.41169 -0.3884,0.7687 -0.68015,1.06998 -0.29175,0.30091 -0.64276,0.53586 -1.05375,0.7052 -0.41063,0.16792 -0.86536,0.25294 -1.36454,0.25294 -0.49848,0 -0.95356,-0.085 -1.36631,-0.25294 -0.41205,-0.16934 -0.76482,-0.40429 -1.05798,-0.7052 -0.29351,-0.30128 -0.52141,-0.65829 -0.68192,-1.06998 -0.16193,-0.4124 -0.24271,-0.85972 -0.24271,-1.34373 0,-0.48366 0.0808,-0.93169 0.24271,-1.34408 0.16051,-0.41205 0.38841,-0.76835 0.68192,-1.06963 0.29316,-0.30091 0.64593,-0.53551 1.05798,-0.70449 0.41275,-0.16934 0.86783,-0.25365 1.36631,-0.25365 0.49918,0 0.95391,0.0857 1.36454,0.25576 0.41099,0.17075 0.762,0.40499 1.05375,0.70485 0.29175,0.29951 0.51858,0.65511 0.68015,1.06716 0.16087,0.41239 0.2413,0.86042 0.2413,1.34408"
         style="fill:#243e89;fill-opacity:1;fill-rule:nonzero;stroke:none;stroke-width:0.35277778"
         id="path19206"
         inkscape:connector-curvature="0" />
      <path
         d="m 130.30122,199.18544 h 0.76588 c 0.23142,0 0.43321,-0.0293 0.60501,-0.0868 0.17145,-0.0579 0.31327,-0.13723 0.42475,-0.23954 0.11077,-0.10125 0.19332,-0.22295 0.24835,-0.3623 0.0547,-0.14076 0.0815,-0.29422 0.0815,-0.46108 0,-0.33514 -0.11007,-0.59196 -0.32985,-0.77153 -0.22119,-0.17921 -0.5581,-0.26881 -1.01106,-0.26881 h -0.78458 z m 0,0.88053 v 2.57775 h -1.22731 v -6.59765 h 2.01189 c 0.45014,0 0.83538,0.0466 1.15676,0.13935 0.32067,0.0931 0.5842,0.2226 0.78881,0.39052 0.20602,0.16722 0.3563,0.36724 0.45191,0.59937 0.0959,0.23284 0.14393,0.48895 0.14393,0.76906 0,0.2219 -0.0328,0.43215 -0.0984,0.62971 -0.0649,0.1972 -0.15945,0.37712 -0.28257,0.53834 -0.12312,0.16086 -0.27517,0.30233 -0.4565,0.42403 -0.18097,0.12206 -0.38699,0.21873 -0.61806,0.29246 0.15522,0.0882 0.28892,0.21413 0.40146,0.37782 l 1.6517,2.43699 h -1.10419 c -0.10583,0 -0.19685,-0.0212 -0.27129,-0.0642 -0.0748,-0.042 -0.13793,-0.10265 -0.18909,-0.18238 l -1.38782,-2.11208 c -0.0515,-0.079 -0.10831,-0.13547 -0.17075,-0.16898 -0.0628,-0.0335 -0.15451,-0.0501 -0.27587,-0.0501 z"
         style="fill:#243e89;fill-opacity:1;fill-rule:nonzero;stroke:none;stroke-width:0.35277778"
         id="path19210"
         inkscape:connector-curvature="0" />
      <path
         d="m 134.82066,196.23156 h -0.254 v 0.72425 h -0.2473 v -0.72425 h -0.25153 V 196.046 h 0.75283 z m 0.72566,0.36654 0.20532,-0.5521 h 0.33761 v 0.90981 h -0.23389 v -0.61842 h -0.005 l -0.21625,0.61842 h -0.17886 l -0.21661,-0.61842 h -0.004 v 0.61842 H 135.0004 V 196.046 h 0.33796 z"
         style="fill:#243e89;fill-opacity:1;fill-rule:nonzero;stroke:none;stroke-width:0.35277778"
         id="path19218"
         inkscape:connector-curvature="0" />
    </g>
  </g>
</svg>
